<?xml version="1.0" encoding="UTF-8"?>
<svg version="1.1" viewBox="0 0 1199 449" xmlns="http://www.w3.org/2000/svg">
<title>Neti-logo</title>
<desc>Created with Sketch.</desc>
<g fill="none" fill-rule="evenodd">
<g transform="translate(-1)">
<path d="m237.41 163.02v9.5883c14.405-18.887 30.282-32.542 47.335-41.257 17.055-9.0072 36.751-13.363 59.097-13.363 21.758 0 41.161 4.6475 58.214 13.944 17.055 9.2986 29.694 22.664 38.222 39.514 5.291 9.8798 8.8177 20.63 10.584 32.252 1.4693 11.332 2.3524 26.149 2.3524 43.872v151.37c0 15.981-3.8217 28.473-11.467 36.61-7.3521 8.4242-17.346 12.492-29.401 12.492-12.053 0-22.051-4.0682-29.694-12.784-7.6434-8.426-11.467-20.629-11.467-36.318v-135.4c0-26.73-3.8198-47.359-11.172-61.596-7.6434-14.236-22.639-21.21-44.984-21.21-14.699 0-27.93 4.3596-39.985 12.784-12.053 8.7175-20.875 20.629-26.46 35.737-4.1148 12.203-6.1722 34.575-6.1722 67.698v101.98c0 16.271-3.8217 28.473-11.467 36.899-7.6434 8.1363-17.639 12.203-29.989 12.203-11.76 0-21.463-4.0682-29.108-12.784-7.6434-8.426-11.467-20.629-11.467-36.318v-234.76c0-15.398 3.2336-27.02 10.291-34.575 6.764-7.8448 16.173-11.621 27.933-11.621 7.0571 0 13.817 1.7417 19.403 5.2287 5.8791 3.1973 10.584 8.426 14.112 15.108 3.5249 6.6825 5.2892 14.819 5.2892 24.697zm521.08 140.04h-160.53c0.29313 18.304 4.1148 34.575 11.465 48.812 7.3521 13.944 17.055 24.695 29.11 31.669 12.053 7.2655 25.577 10.751 40.278 10.751 9.7008 0 18.817-1.1623 26.755-3.4852 8.2314-2.035 16.17-5.8098 23.815-10.461 7.6415-4.9408 14.699-10.169 20.875-15.69 6.469-5.5202 14.7-13.075 24.991-22.664 4.1166-3.4888 9.9957-5.522 17.934-5.522 8.2333 0 15.289 2.3247 20.581 6.974 4.9979 4.6493 7.6434 11.042 7.6434 19.468 0 7.2619-2.9386 15.69-8.8177 25.568-5.8827 9.878-14.407 19.175-26.167 28.182-11.76 9.0072-26.46 16.56-44.101 22.664-17.641 5.8098-38.222 8.7157-61.154 8.7157-52.63 0-93.791-14.817-123.19-44.453-29.11-29.638-43.808-70.022-43.808-121.16 0-23.826 3.5267-46.198 10.879-66.825 7.0534-20.339 17.639-38.062 31.456-52.591 13.819-14.817 30.872-26.149 51.158-33.704 20.285-7.8448 42.923-11.913 67.328-11.913 32.34 0 59.685 6.6843 82.617 20.049 22.934 13.365 39.985 30.798 51.452 52.01 11.467 21.21 17.346 42.711 17.346 64.79 0 20.339-6.1759 33.704-17.936 39.805-11.76 5.8098-28.518 9.0072-49.98 9.0072zm-160.53-46.2h149.06c-2.0574-27.601-9.4095-48.521-22.639-62.176-13.231-13.948-30.577-20.63-52.04-20.63-20.286 0-37.044 6.974-50.275 20.92s-21.169 34.577-24.108 61.886zm294.62-131.61h9.1145v-48.814c0-13.074 0.29496-23.534 0.88305-30.796 0.88122-7.5551 2.6455-13.946 5.8809-19.177 3.2336-5.5202 7.9383-10.169 13.817-13.656 6.1759-3.4852 12.936-5.2305 20.288-5.2305 10.289 0 19.991 4.0682 28.223 11.621 5.586 5.2323 9.1145 11.623 10.879 18.887 1.4693 7.5551 2.0574 18.014 2.0574 31.671v55.495h30.282c11.467 0 20.581 2.6143 26.46 8.1363 6.1759 5.5184 9.4095 12.492 9.4095 20.92 0 11.04-4.4098 18.595-13.231 22.952-8.8177 4.3578-21.168 6.6825-37.632 6.6825h-15.289v149.05c0 12.784 0.58809 22.662 1.4711 29.344 0.88122 6.974 3.2336 12.494 7.0571 16.56 4.1148 4.3578 10.584 6.391 19.403 6.391 4.7029 0 11.172-0.58116 19.405-2.3247 8.2314-1.7417 14.7-2.6143 19.11-2.6143 6.7621 0 12.643 2.6143 18.229 7.8448 5.2928 5.2305 7.6434 11.621 7.6434 19.465 0 13.075-7.0553 23.245-21.463 29.927-14.406 6.974-35.28 10.459-62.329 10.459-25.579 0-45.279-4.0682-58.509-12.784-13.231-8.426-21.758-20.337-25.872-35.446-4.1185-14.817-6.1759-34.866-6.1759-60.144v-155.73h-10.879c-11.76 0-20.875-2.9058-27.049-8.4242-6.174-5.522-9.4076-12.494-9.4076-21.21 0-8.4278 3.2336-15.4 9.7026-20.92 6.7603-5.5184 16.17-8.1327 28.518-8.1327zm306.77 38.933v234.76c0 15.981-3.8217 28.473-11.762 36.61-7.6415 8.4242-17.639 12.492-29.694 12.492-12.053 0-21.756-4.0682-29.399-12.784-7.3521-8.426-11.174-20.629-11.174-36.318v-232.44c0-15.983 3.8217-28.184 11.174-36.32 7.6434-8.1345 17.346-12.203 29.399-12.203 12.055 0 22.053 4.0682 29.694 12.203 7.9402 8.1363 11.762 19.468 11.762 33.995zm-40.573-83.968c-11.467 0-21.169-3.4852-29.401-10.459-7.9383-6.974-12.055-16.854-12.055-29.344 0-11.623 4.1185-20.92 12.35-28.473 8.5264-7.2637 18.227-11.04 29.106-11.04 10.584 0 19.993 3.1955 28.227 10.169 8.2296 6.6807 12.348 16.56 12.348 29.344 0 12.492-3.8217 22.372-12.055 29.344-7.9383 6.9722-17.348 10.459-28.52 10.459z" fill="#231F20"/>
<path d="m46.302 203.11c24.401 0 44.395-19.758 44.395-43.872 0-24.405-19.993-44.163-44.395-44.163-24.698 0-44.691 19.756-44.691 44.163 0.0018321 24.114 19.993 43.872 44.691 43.872" fill="#f00"/>
<path d="m46.523 324.4c24.401 0 44.395-19.76 44.395-44.163 0-24.116-19.993-44.163-44.395-44.163-24.698 0-44.691 20.047-44.691 44.163 0.0018321 24.407 19.993 44.163 44.691 44.163" fill="#f00"/>
<path d="m46.302 444.56c24.401 0 44.395-19.758 44.395-43.873 0-24.405-19.993-44.163-44.395-44.163-24.698 0-44.691 19.758-44.691 44.163 0.0018321 24.117 19.993 43.873 44.691 43.873" fill="#f00"/>
</g>
</g>
</svg>
